<svg xmlns="http://www.w3.org/2000/svg" viewBox="0 0 720 320" role="img" aria-labelledby="title desc">
  <title id="title">Logo Prote&#231;&#227;o Patrimonial RFID</title>
  <desc id="desc">Escudo com sinal RFID e texto Prote&#231;&#227;o Patrimonial RFID.</desc>
  <defs>
    <linearGradient id="bg" x1="0" y1="0" x2="1" y2="1">
      <stop offset="0%" stop-color="#1d4ed8" />
      <stop offset="100%" stop-color="#0f172a" />
    </linearGradient>
    <linearGradient id="shield" x1="0" y1="0" x2="0" y2="1">
      <stop offset="0%" stop-color="#38bdf8" />
      <stop offset="100%" stop-color="#2563eb" />
    </linearGradient>
  </defs>

  <rect width="720" height="320" rx="28" fill="url(#bg)" />

  <g transform="translate(44 44)">
    <path d="M116 0C88 24 58 34 26 38c-2 45 2 78 15 104 15 30 41 54 75 72 34-18 60-42 75-72 13-26 17-59 15-104-32-4-62-14-90-38z" fill="url(#shield)" stroke="#e0f2fe" stroke-width="6"/>
    <circle cx="116" cy="96" r="14" fill="#e0f2fe"/>
    <path d="M94 96a22 22 0 0 1 44 0" fill="none" stroke="#e0f2fe" stroke-width="8" stroke-linecap="round"/>
    <path d="M80 96a36 36 0 0 1 72 0" fill="none" stroke="#bfdbfe" stroke-width="6" stroke-linecap="round"/>
    <path d="M68 96a48 48 0 0 1 96 0" fill="none" stroke="#93c5fd" stroke-width="4" stroke-linecap="round"/>
  </g>

  <g fill="#f8fafc" font-family="Arial, Helvetica, sans-serif">
    <text x="270" y="128" font-size="42" font-weight="700">Prote&#231;&#227;o Patrimonial</text>
    <text x="270" y="178" font-size="54" font-weight="800" letter-spacing="2">RFID</text>
    <text x="270" y="220" font-size="18" fill="#bfdbfe">Controle de patrim&#244;nio com identifica&#231;&#227;o por tags</text>
  </g>
</svg>
